<svg width="25" height="25" viewBox="0 0 25 25" fill="none" xmlns="http://www.w3.org/2000/svg">
<path d="M16.0331 20.0443V4.00926C16.0331 3.47767 15.822 2.96785 15.4461 2.59195C15.0702 2.21606 14.5604 2.00488 14.0288 2.00488H10.02C9.48841 2.00488 8.97859 2.21606 8.60269 2.59195C8.2268 2.96785 8.01563 3.47767 8.01562 4.00926V20.0443" stroke="#727272" stroke-width="2.00438" stroke-linecap="round" stroke-linejoin="round"/>
<path d="M20.0433 6.0127H4.00828C2.9013 6.0127 2.00391 6.91009 2.00391 8.01707V18.039C2.00391 19.146 2.9013 20.0433 4.00828 20.0433H20.0433C21.1503 20.0433 22.0477 19.146 22.0477 18.039V8.01707C22.0477 6.91009 21.1503 6.0127 20.0433 6.0127Z" stroke="#727272" stroke-width="2.00438" stroke-linecap="round" stroke-linejoin="round"/>
</svg>
