<svg width="75" height="75" viewBox="0 0 75 75" fill="none" xmlns="http://www.w3.org/2000/svg">
<g filter="url(#filter0_dd_4453_8069)">
<path d="M11.1895 16.7851C11.1895 8.54496 17.8694 1.86499 26.1096 1.86499H48.4883C56.7284 1.86499 63.4084 8.54497 63.4084 16.7851V39.1638C63.4084 47.404 56.7284 54.0839 48.4882 54.0839H26.1096C17.8694 54.0839 11.1895 47.404 11.1895 39.1638V16.7851Z" fill="url(#paint0_linear_4453_8069)" shape-rendering="crispEdges"/>
<path d="M11.1895 16.7851C11.1895 8.54496 17.8694 1.86499 26.1096 1.86499H48.4883C56.7284 1.86499 63.4084 8.54497 63.4084 16.7851V39.1638C63.4084 47.404 56.7284 54.0839 48.4882 54.0839H26.1096C17.8694 54.0839 11.1895 47.404 11.1895 39.1638V16.7851Z" fill="url(#paint1_linear_4453_8069)" shape-rendering="crispEdges"/>
<path d="M44.2376 36.3123L37.821 32.6456L31.4043 36.3123V21.6456C31.4043 21.1594 31.5975 20.693 31.9413 20.3492C32.2851 20.0054 32.7514 19.8123 33.2376 19.8123H42.4043C42.8905 19.8123 43.3568 20.0054 43.7007 20.3492C44.0445 20.693 44.2376 21.1594 44.2376 21.6456V36.3123Z" stroke="white" stroke-width="2.27" stroke-linecap="round" stroke-linejoin="round"/>
</g>
<defs>
<filter id="filter0_dd_4453_8069" x="-0.000667572" y="-3.05176e-05" width="74.599" height="74.5992" filterUnits="userSpaceOnUse" color-interpolation-filters="sRGB">
<feFlood flood-opacity="0" result="BackgroundImageFix"/>
<feColorMatrix in="SourceAlpha" type="matrix" values="0 0 0 0 0 0 0 0 0 0 0 0 0 0 0 0 0 0 127 0" result="hardAlpha"/>
<feMorphology radius="3.73004" operator="erode" in="SourceAlpha" result="effect1_dropShadow_4453_8069"/>
<feOffset dy="3.73004"/>
<feGaussianBlur stdDeviation="2.79753"/>
<feComposite in2="hardAlpha" operator="out"/>
<feColorMatrix type="matrix" values="0 0 0 0 0 0 0 0 0 0 0 0 0 0 0 0 0 0 0.1 0"/>
<feBlend mode="normal" in2="BackgroundImageFix" result="effect1_dropShadow_4453_8069"/>
<feColorMatrix in="SourceAlpha" type="matrix" values="0 0 0 0 0 0 0 0 0 0 0 0 0 0 0 0 0 0 127 0" result="hardAlpha"/>
<feMorphology radius="2.79753" operator="erode" in="SourceAlpha" result="effect2_dropShadow_4453_8069"/>
<feOffset dy="9.3251"/>
<feGaussianBlur stdDeviation="6.99383"/>
<feComposite in2="hardAlpha" operator="out"/>
<feColorMatrix type="matrix" values="0 0 0 0 0 0 0 0 0 0 0 0 0 0 0 0 0 0 0.1 0"/>
<feBlend mode="normal" in2="effect1_dropShadow_4453_8069" result="effect2_dropShadow_4453_8069"/>
<feBlend mode="normal" in="SourceGraphic" in2="effect2_dropShadow_4453_8069" result="shape"/>
</filter>
<linearGradient id="paint0_linear_4453_8069" x1="11.1895" y1="1.86499" x2="63.4084" y2="54.0839" gradientUnits="userSpaceOnUse">
<stop stop-color="#FF6900"/>
<stop offset="1" stop-color="#F54900"/>
</linearGradient>
<linearGradient id="paint1_linear_4453_8069" x1="11.1895" y1="1.86499" x2="63.4084" y2="54.0839" gradientUnits="userSpaceOnUse">
<stop stop-color="#AD46FF"/>
<stop offset="1" stop-color="#9810FA"/>
</linearGradient>
</defs>
</svg>
