<svg width="75" height="75" viewBox="0 0 75 75" fill="none" xmlns="http://www.w3.org/2000/svg">
<g filter="url(#filter0_dd_4453_7994)">
<path d="M11.1895 16.7851C11.1895 8.54496 17.8694 1.86499 26.1096 1.86499H48.4883C56.7284 1.86499 63.4084 8.54497 63.4084 16.7851V39.1638C63.4084 47.404 56.7284 54.0839 48.4882 54.0839H26.1096C17.8694 54.0839 11.1895 47.404 11.1895 39.1638V16.7851Z" fill="url(#paint0_linear_4453_7994)" shape-rendering="crispEdges"/>
<path d="M37.896 24.1506C42.5298 24.1506 46.2862 22.8984 46.2862 21.3539C46.2862 19.8093 42.5298 18.5571 37.896 18.5571C33.2623 18.5571 29.5059 19.8093 29.5059 21.3539C29.5059 22.8984 33.2623 24.1506 37.896 24.1506Z" stroke="white" stroke-width="1.86448" stroke-linecap="round" stroke-linejoin="round"/>
<path d="M29.5059 21.3541V34.4055C29.5059 35.1473 30.3898 35.8586 31.9633 36.3831C33.5367 36.9076 35.6708 37.2022 37.896 37.2022C40.1213 37.2022 42.2553 36.9076 43.8288 36.3831C45.4023 35.8586 46.2862 35.1473 46.2862 34.4055V21.3541" stroke="white" stroke-width="1.86448" stroke-linecap="round" stroke-linejoin="round"/>
<path d="M29.5059 27.8804C29.5059 28.6221 30.3898 29.3335 31.9633 29.858C33.5367 30.3824 35.6708 30.6771 37.896 30.6771C40.1213 30.6771 42.2553 30.3824 43.8288 29.858C45.4023 29.3335 46.2862 28.6221 46.2862 27.8804" stroke="white" stroke-width="1.86448" stroke-linecap="round" stroke-linejoin="round"/>
</g>
<defs>
<filter id="filter0_dd_4453_7994" x="-0.000667572" y="-3.05176e-05" width="74.599" height="74.5992" filterUnits="userSpaceOnUse" color-interpolation-filters="sRGB">
<feFlood flood-opacity="0" result="BackgroundImageFix"/>
<feColorMatrix in="SourceAlpha" type="matrix" values="0 0 0 0 0 0 0 0 0 0 0 0 0 0 0 0 0 0 127 0" result="hardAlpha"/>
<feMorphology radius="3.73004" operator="erode" in="SourceAlpha" result="effect1_dropShadow_4453_7994"/>
<feOffset dy="3.73004"/>
<feGaussianBlur stdDeviation="2.79753"/>
<feComposite in2="hardAlpha" operator="out"/>
<feColorMatrix type="matrix" values="0 0 0 0 0 0 0 0 0 0 0 0 0 0 0 0 0 0 0.1 0"/>
<feBlend mode="normal" in2="BackgroundImageFix" result="effect1_dropShadow_4453_7994"/>
<feColorMatrix in="SourceAlpha" type="matrix" values="0 0 0 0 0 0 0 0 0 0 0 0 0 0 0 0 0 0 127 0" result="hardAlpha"/>
<feMorphology radius="2.79753" operator="erode" in="SourceAlpha" result="effect2_dropShadow_4453_7994"/>
<feOffset dy="9.3251"/>
<feGaussianBlur stdDeviation="6.99383"/>
<feComposite in2="hardAlpha" operator="out"/>
<feColorMatrix type="matrix" values="0 0 0 0 0 0 0 0 0 0 0 0 0 0 0 0 0 0 0.1 0"/>
<feBlend mode="normal" in2="effect1_dropShadow_4453_7994" result="effect2_dropShadow_4453_7994"/>
<feBlend mode="normal" in="SourceGraphic" in2="effect2_dropShadow_4453_7994" result="shape"/>
</filter>
<linearGradient id="paint0_linear_4453_7994" x1="11.1895" y1="1.86499" x2="63.4084" y2="54.0839" gradientUnits="userSpaceOnUse">
<stop stop-color="#2B7FFF"/>
<stop offset="1" stop-color="#155DFC"/>
</linearGradient>
</defs>
</svg>
