<svg width="75" height="75" viewBox="0 0 75 75" fill="none" xmlns="http://www.w3.org/2000/svg">
<g filter="url(#filter0_dd_4453_8026)">
<path d="M11.1895 16.7851C11.1895 8.54496 17.8694 1.86499 26.1096 1.86499H48.4883C56.7284 1.86499 63.4084 8.54497 63.4084 16.7851V39.1638C63.4084 47.404 56.7284 54.0839 48.4882 54.0839H26.1096C17.8694 54.0839 11.1895 47.404 11.1895 39.1638V16.7851Z" fill="url(#paint0_linear_4453_8026)" shape-rendering="crispEdges"/>
<path d="M40.6941 18.5571H32.3039C31.8094 18.5571 31.3352 18.7536 30.9855 19.1032C30.6359 19.4529 30.4395 19.9271 30.4395 20.4216V35.3375C30.4395 35.832 30.6359 36.3062 30.9855 36.6559C31.3352 37.0055 31.8094 37.202 32.3039 37.202H43.4908C43.9853 37.202 44.4596 37.0055 44.8092 36.6559C45.1589 36.3062 45.3553 35.832 45.3553 35.3375V23.2183L40.6941 18.5571Z" stroke="white" stroke-width="1.86448" stroke-linecap="round" stroke-linejoin="round"/>
<path d="M39.7598 18.5571V22.2861C39.7598 22.7806 39.9562 23.2548 40.3059 23.6045C40.6555 23.9541 41.1298 24.1506 41.6242 24.1506H45.3532" stroke="white" stroke-width="1.86448" stroke-linecap="round" stroke-linejoin="round"/>
<path d="M36.031 25.0826H34.166" stroke="white" stroke-width="1.86448" stroke-linecap="round" stroke-linejoin="round"/>
<path d="M41.624 28.812H34.166" stroke="white" stroke-width="1.86448" stroke-linecap="round" stroke-linejoin="round"/>
<path d="M41.624 32.5408H34.166" stroke="white" stroke-width="1.86448" stroke-linecap="round" stroke-linejoin="round"/>
</g>
<defs>
<filter id="filter0_dd_4453_8026" x="-0.000667572" y="-3.05176e-05" width="74.599" height="74.5992" filterUnits="userSpaceOnUse" color-interpolation-filters="sRGB">
<feFlood flood-opacity="0" result="BackgroundImageFix"/>
<feColorMatrix in="SourceAlpha" type="matrix" values="0 0 0 0 0 0 0 0 0 0 0 0 0 0 0 0 0 0 127 0" result="hardAlpha"/>
<feMorphology radius="3.73004" operator="erode" in="SourceAlpha" result="effect1_dropShadow_4453_8026"/>
<feOffset dy="3.73004"/>
<feGaussianBlur stdDeviation="2.79753"/>
<feComposite in2="hardAlpha" operator="out"/>
<feColorMatrix type="matrix" values="0 0 0 0 0 0 0 0 0 0 0 0 0 0 0 0 0 0 0.1 0"/>
<feBlend mode="normal" in2="BackgroundImageFix" result="effect1_dropShadow_4453_8026"/>
<feColorMatrix in="SourceAlpha" type="matrix" values="0 0 0 0 0 0 0 0 0 0 0 0 0 0 0 0 0 0 127 0" result="hardAlpha"/>
<feMorphology radius="2.79753" operator="erode" in="SourceAlpha" result="effect2_dropShadow_4453_8026"/>
<feOffset dy="9.3251"/>
<feGaussianBlur stdDeviation="6.99383"/>
<feComposite in2="hardAlpha" operator="out"/>
<feColorMatrix type="matrix" values="0 0 0 0 0 0 0 0 0 0 0 0 0 0 0 0 0 0 0.1 0"/>
<feBlend mode="normal" in2="effect1_dropShadow_4453_8026" result="effect2_dropShadow_4453_8026"/>
<feBlend mode="normal" in="SourceGraphic" in2="effect2_dropShadow_4453_8026" result="shape"/>
</filter>
<linearGradient id="paint0_linear_4453_8026" x1="11.1895" y1="1.86499" x2="63.4084" y2="54.0839" gradientUnits="userSpaceOnUse">
<stop stop-color="#FF6900"/>
<stop offset="1" stop-color="#F54900"/>
</linearGradient>
</defs>
</svg>
