<svg width="40" height="40" viewBox="0 0 40 40" fill="none" xmlns="http://www.w3.org/2000/svg">
<rect x="0.5" y="0.5" width="39" height="39" rx="19.5" fill="#111827"/>
<rect x="0.5" y="0.5" width="39" height="39" rx="19.5" stroke="#1F2937"/>
<g clip-path="url(#clip0_4453_9629)">
<path d="M26.9657 13.9021C26.0566 13.9021 25.2179 13.601 24.5443 13.0929C23.7718 12.5105 23.2168 11.6562 23.0208 10.6716C22.9717 10.424 22.9458 10.1723 22.9436 9.91992H20.3468V17.0157L20.3437 20.9024C20.3437 21.9416 19.667 22.8226 18.729 23.1325C18.4481 23.2254 18.1521 23.2646 17.8567 23.2482C17.4659 23.2268 17.0997 23.1088 16.7815 22.9184C16.1042 22.5134 15.645 21.7785 15.6325 20.9379C15.6129 19.6241 16.6751 18.5529 17.988 18.5529C18.2471 18.5529 18.496 18.5952 18.729 18.6721V16.0354C18.4832 15.999 18.2331 15.98 17.9802 15.98C16.5432 15.98 15.1992 16.5774 14.2384 17.6535C13.5123 18.4668 13.0768 19.5043 13.0096 20.5923C12.9215 22.0215 13.4445 23.3801 14.4587 24.3825C14.6077 24.5297 14.7642 24.6663 14.9279 24.7923C15.7974 25.4615 16.8605 25.8242 17.9802 25.8242C18.2331 25.8242 18.4832 25.8056 18.729 25.7692C19.775 25.6142 20.74 25.1354 21.5016 24.3825C22.4375 23.4576 22.9545 22.2296 22.9601 20.9227L22.9468 15.1186C23.3943 15.4637 23.8845 15.7496 24.4052 15.9692C25.22 16.3129 26.084 16.4872 26.9731 16.4868V13.9015C26.9738 13.9021 26.9663 13.9021 26.9657 13.9021Z" fill="white"/>
</g>
<defs>
<clipPath id="clip0_4453_9629">
<rect width="20" height="20" fill="white" transform="translate(10 10)"/>
</clipPath>
</defs>
</svg>
