<svg width="40" height="40" viewBox="0 0 40 40" fill="none" xmlns="http://www.w3.org/2000/svg">
<rect x="0.5" y="0.5" width="39" height="39" rx="19.5" fill="#111827"/>
<rect x="0.5" y="0.5" width="39" height="39" rx="19.5" stroke="#1F2937"/>
<path d="M12.085 15.8331C11.5029 18.5801 11.5029 21.4185 12.085 24.1654C12.1615 24.4444 12.3093 24.6986 12.5139 24.9032C12.7184 25.1077 12.9727 25.2555 13.2517 25.3319C17.721 26.0725 22.2818 26.0725 26.7512 25.3319C27.0302 25.2555 27.2845 25.1077 27.489 24.9032C27.6936 24.6986 27.8414 24.4444 27.9178 24.1654C28.5 21.4185 28.5 18.5801 27.9178 15.8331C27.8414 15.5542 27.6936 15.2999 27.489 15.0954C27.2845 14.8909 27.0302 14.7431 26.7512 14.6666C22.2818 13.9262 17.7211 13.9262 13.2517 14.6666C12.9727 14.7431 12.7184 14.8909 12.5139 15.0954C12.3093 15.2999 12.1615 15.5542 12.085 15.8331Z" fill="white"/>
<path d="M20.4185 21.2491L21.2669 20.7401L22.5018 19.9993L20.4185 18.7494M22.5018 19.9993L18.3352 18.8225M20.4185 18.7494L18.3352 17.4996V18.1245M20.4185 18.7494L18.3352 18.1245M20.4185 21.2491L19.3769 21.874L18.3352 22.499V19.9993M18.3352 19.9993L20.4185 21.2491M18.3352 19.9993V19.2826M18.3352 19.9993L19.3769 21.874M18.3352 18.8225V18.7494V18.1245M18.3352 18.8225V19.2826M21.2669 20.7401L18.3352 19.2826M12.085 24.1654C11.5029 21.4185 11.5029 18.5801 12.085 15.8331C12.1615 15.5542 12.3093 15.2999 12.5139 15.0954C12.7184 14.8909 12.9727 14.7431 13.2517 14.6666C17.7211 13.9262 22.2818 13.9262 26.7512 14.6666C27.0302 14.7431 27.2845 14.8909 27.489 15.0954C27.6936 15.2999 27.8414 15.5542 27.9178 15.8331C28.5 18.5801 28.5 21.4185 27.9178 24.1654C27.8414 24.4444 27.6936 24.6986 27.489 24.9032C27.2845 25.1077 27.0302 25.2555 26.7512 25.3319C22.2818 26.0725 17.721 26.0725 13.2517 25.3319C12.9727 25.2555 12.7184 25.1077 12.5139 24.9032C12.3093 24.6986 12.1615 24.4444 12.085 24.1654Z" stroke="#181818" stroke-linecap="round"/>
</svg>
